G04*
G04 #@! TF.GenerationSoftware,Altium Limited,Altium Designer,18.0.7 (293)*
G04*
G04 Layer_Physical_Order=2*
G04 Layer_Color=16711680*
%FSLAX25Y25*%
%MOIN*%
G70*
G01*
G75*
%ADD50C,0.01378*%
%ADD51C,0.03937*%
%ADD52C,0.05906*%
%ADD53C,0.06000*%
%ADD54R,0.06299X0.06299*%
%ADD55C,0.05937*%
%ADD56R,0.06299X0.06299*%
%ADD57C,0.07874*%
%ADD58C,0.05000*%
%ADD59C,0.12598*%
%ADD60C,0.04724*%
D50*
X47441Y212598D02*
X66142Y193898D01*
Y139764D02*
Y193898D01*
X47343Y133858D02*
X81791D01*
X29469Y151732D02*
X47343Y133858D01*
X81791D02*
X97835Y149902D01*
X131299Y128740D02*
X165256Y162697D01*
X34941Y128740D02*
X131299D01*
X21949Y141732D02*
X34941Y128740D01*
X47244Y255512D02*
X47441Y255315D01*
Y212598D02*
Y255315D01*
X170739Y302432D02*
X230590D01*
X156161Y287854D02*
X170739Y302432D01*
X156161Y284744D02*
Y287854D01*
X64204Y71032D02*
X126741D01*
X6290Y128946D02*
X64204Y71032D01*
X6290Y128946D02*
Y156073D01*
X156161Y234744D02*
X165905Y244488D01*
X176969D01*
X186024Y235433D01*
X189547Y261122D02*
X224980Y296555D01*
X111679Y261122D02*
X189547D01*
X90490Y239932D02*
X111679Y261122D01*
X207205Y192205D02*
X219980D01*
X177579Y221831D02*
X207205Y192205D01*
X140256Y221831D02*
X177579D01*
X132992Y214567D02*
X140256Y221831D01*
X205610Y226575D02*
X219980Y212205D01*
X135000Y226575D02*
X205610D01*
X122992Y214567D02*
X135000Y226575D01*
X139764Y161221D02*
Y183858D01*
X127890Y189032D02*
Y199669D01*
X128445Y149902D02*
X139764Y161221D01*
X97835Y149902D02*
X128445D01*
X90490Y181042D02*
X112168Y159365D01*
X123622D01*
X125591Y136909D02*
X155905Y167224D01*
Y175000D01*
X165256Y162697D02*
Y178248D01*
X155905Y187598D02*
X165256Y178248D01*
X148622Y187598D02*
X155905D01*
X102165Y136909D02*
X125591D01*
X21949Y151732D02*
X29469D01*
X123819Y121949D02*
X124016Y122146D01*
X102165Y121949D02*
X123819D01*
X112992Y214567D02*
X127890Y199669D01*
X90490Y181042D02*
Y239932D01*
X160843Y134432D02*
X230990Y64285D01*
X175354Y182205D02*
X219980D01*
X142992Y214567D02*
X175354Y182205D01*
X126741Y71032D02*
X132677Y76968D01*
X6290Y156073D02*
X11949Y161732D01*
X230590Y302432D02*
X230690Y302332D01*
Y222914D02*
Y302332D01*
X219980Y212205D02*
X230690Y222914D01*
X106161Y198961D02*
X121260Y183862D01*
X106161Y198961D02*
Y234744D01*
X118110Y101378D02*
X142520Y76968D01*
X204980Y292923D02*
Y296555D01*
X196802Y284744D02*
X204980Y292923D01*
X166161Y284744D02*
X196802D01*
X204980Y296555D02*
X214980D01*
X136161Y234744D02*
X146161D01*
D51*
X166161Y278366D02*
Y284744D01*
X157579Y269783D02*
X166161Y278366D01*
X115847Y269783D02*
X157579D01*
X106161Y279469D02*
X115847Y269783D01*
X106161Y279469D02*
Y284744D01*
D52*
X146161Y297601D02*
X163325Y314764D01*
X146161Y284744D02*
Y297601D01*
X136161Y307286D02*
X143640Y314764D01*
X136161Y284744D02*
Y307286D01*
X123917Y314764D02*
X126161Y312520D01*
Y284744D02*
Y312520D01*
X104195Y314764D02*
X116161Y302798D01*
Y284744D02*
Y302798D01*
D53*
X224980Y296555D02*
D03*
X214980D02*
D03*
X204980D02*
D03*
X96161Y284744D02*
D03*
X106161D02*
D03*
X116161D02*
D03*
X126161D02*
D03*
X136161D02*
D03*
X146161D02*
D03*
X156161D02*
D03*
X166161D02*
D03*
Y234744D02*
D03*
X156161D02*
D03*
X146161D02*
D03*
X136161D02*
D03*
X126161D02*
D03*
X116161D02*
D03*
X106161D02*
D03*
X96161D02*
D03*
X215847Y30807D02*
D03*
X184350D02*
D03*
X219980Y202205D02*
D03*
Y192205D02*
D03*
Y182205D02*
D03*
X21949Y151732D02*
D03*
Y161732D02*
D03*
X11949Y141732D02*
D03*
Y151732D02*
D03*
Y161732D02*
D03*
X122992Y214567D02*
D03*
X132992D02*
D03*
X142992D02*
D03*
D54*
X194980Y296555D02*
D03*
X21949Y141732D02*
D03*
X112992Y214567D02*
D03*
D55*
X122835Y19882D02*
D03*
X142520D02*
D03*
Y76968D02*
D03*
X132677D02*
D03*
X122835D02*
D03*
D56*
X219980Y212205D02*
D03*
D57*
X163325Y314764D02*
D03*
X143640D02*
D03*
X123917D02*
D03*
X104195D02*
D03*
X46223D02*
D03*
X65945D02*
D03*
D58*
X66142Y139764D02*
D03*
X47244Y255512D02*
D03*
X47441Y212598D02*
D03*
X186024Y235433D02*
D03*
X139764Y183858D02*
D03*
X127890Y189032D02*
D03*
X123622Y159365D02*
D03*
X155905Y175000D02*
D03*
X148622Y187598D02*
D03*
X102165Y136909D02*
D03*
Y121949D02*
D03*
X124016Y122146D02*
D03*
X230990Y64285D02*
D03*
X160843Y134432D02*
D03*
X121260Y183862D02*
D03*
X118110Y101378D02*
D03*
D59*
X246063Y324803D02*
D03*
Y9843D02*
D03*
X9843D02*
D03*
Y324803D02*
D03*
D60*
X106161Y284744D02*
Y290295D01*
X81693Y314764D02*
X106161Y290295D01*
X65945Y314764D02*
X81693D01*
X76243Y284744D02*
X96161D01*
X46223Y314764D02*
X76243Y284744D01*
M02*
