G04*
G04 #@! TF.GenerationSoftware,Altium Limited,Altium Designer,18.0.7 (293)*
G04*
G04 Layer_Physical_Order=1*
G04 Layer_Color=255*
%FSLAX25Y25*%
%MOIN*%
G70*
G01*
G75*
%ADD19R,0.12756X0.05158*%
%ADD20R,0.03661X0.05158*%
%ADD21R,0.07087X0.10236*%
%ADD22R,0.02165X0.05906*%
%ADD23R,0.05906X0.02165*%
%ADD24R,0.01181X0.06299*%
%ADD25R,0.05906X0.17717*%
%ADD26R,0.05118X0.05906*%
%ADD27R,0.03937X0.04331*%
%ADD28R,0.03543X0.02756*%
%ADD29R,0.04331X0.03937*%
%ADD30R,0.03347X0.05118*%
%ADD50C,0.01378*%
%ADD51C,0.03937*%
%ADD52C,0.05906*%
%ADD53C,0.06000*%
%ADD54R,0.06299X0.06299*%
%ADD55C,0.05937*%
%ADD56R,0.06299X0.06299*%
%ADD57C,0.07874*%
%ADD58C,0.05000*%
%ADD59C,0.12598*%
D19*
X22835Y185158D02*
D03*
D20*
X13819Y211496D02*
D03*
X22835D02*
D03*
X31850D02*
D03*
D21*
X155118Y47441D02*
D03*
X110236D02*
D03*
D22*
X118110Y138779D02*
D03*
X121260D02*
D03*
X124409D02*
D03*
X127559D02*
D03*
X130709D02*
D03*
X133858D02*
D03*
X137008D02*
D03*
X140158D02*
D03*
Y172638D02*
D03*
X137008D02*
D03*
X133858D02*
D03*
X130709D02*
D03*
X127559D02*
D03*
X124409D02*
D03*
X121260D02*
D03*
X118110D02*
D03*
D23*
X146063Y144685D02*
D03*
Y147835D02*
D03*
Y150984D02*
D03*
Y154134D02*
D03*
Y157283D02*
D03*
Y160433D02*
D03*
Y163583D02*
D03*
Y166732D02*
D03*
X112205D02*
D03*
Y163583D02*
D03*
Y160433D02*
D03*
Y157283D02*
D03*
Y154134D02*
D03*
Y150984D02*
D03*
Y147835D02*
D03*
Y144685D02*
D03*
D24*
X139862Y125197D02*
D03*
X143602D02*
D03*
X147343D02*
D03*
D25*
X23524Y238779D02*
D03*
Y272638D02*
D03*
X67224Y238681D02*
D03*
Y272539D02*
D03*
D26*
X163386Y147736D02*
D03*
X170866D02*
D03*
D27*
X234350Y52264D02*
D03*
Y58957D02*
D03*
D28*
X96358Y153937D02*
D03*
X91240D02*
D03*
X137303Y87106D02*
D03*
X142421D02*
D03*
X127854D02*
D03*
X122736D02*
D03*
D29*
X187402Y147835D02*
D03*
X180709D02*
D03*
D30*
X241732Y41634D02*
D03*
X234252D02*
D03*
X237992Y32972D02*
D03*
D50*
X137690Y87106D02*
Y89232D01*
X127952Y87107D02*
X127953Y87008D01*
X21831Y185158D02*
X53051Y153937D01*
X219980Y212205D02*
X230118Y202067D01*
Y181661D02*
Y202067D01*
X225690Y177232D02*
X230118Y181661D01*
X225690Y72146D02*
Y177232D01*
X184350Y30807D02*
X225690Y72146D01*
X226490Y32932D02*
X237992D01*
X211417Y214660D02*
X216890Y220132D01*
X211417Y207677D02*
Y214660D01*
Y207677D02*
X216890Y202205D01*
X131595Y125886D02*
X133858Y128150D01*
Y138779D01*
X131595Y125787D02*
Y125886D01*
Y87066D02*
Y125787D01*
X127559Y129823D02*
X127756Y129626D01*
X127559D02*
X127756D01*
X131595Y125787D01*
X127559Y129823D02*
Y138779D01*
Y129626D02*
Y129823D01*
X127952Y87107D02*
X131595Y87066D01*
X127952Y87107D02*
Y87107D01*
X66142Y139764D02*
Y139764D01*
X47441Y121063D02*
X66142Y139764D01*
X27067Y121063D02*
X47441D01*
X11949Y136181D02*
X27067Y121063D01*
X11949Y136181D02*
Y141732D01*
X95990Y146876D02*
Y153937D01*
X48498Y146876D02*
X95990D01*
X33642Y161732D02*
X48498Y146876D01*
X21949Y161732D02*
X33642D01*
X47244Y259646D02*
X60138Y272539D01*
X47244Y255512D02*
Y259646D01*
X60138Y272539D02*
X67224D01*
X47441Y199508D02*
Y212598D01*
X33091Y185158D02*
X47441Y199508D01*
X22835Y185158D02*
X33091D01*
X23524Y238779D02*
X23622Y238681D01*
X14764Y114764D02*
X80020D01*
X5020Y124508D02*
X14764Y114764D01*
X5020Y124508D02*
Y144803D01*
X80020Y114764D02*
X102165Y136909D01*
X189545Y240672D02*
X202953Y227264D01*
X96161Y234744D02*
X102089Y240672D01*
X157579Y157283D02*
X186024Y185728D01*
X102089Y240672D02*
X189545D01*
X186024Y185728D02*
Y235433D01*
X202953Y193701D02*
Y227264D01*
X163386Y154134D02*
X202953Y193701D01*
X153543Y205886D02*
Y217913D01*
X147539Y223917D02*
X153543Y217913D01*
X88621Y223917D02*
X147539D01*
X86319Y226220D02*
X88621Y223917D01*
X133858Y186201D02*
X153543Y205886D01*
X86319Y234361D02*
X96890Y244932D01*
X86319Y226220D02*
Y234361D01*
X139764Y173032D02*
X140158Y172638D01*
X139764Y173032D02*
Y183858D01*
X133858Y172638D02*
Y186201D01*
X127559Y188702D02*
X127890Y189032D01*
X130709Y145213D02*
Y159686D01*
X127559Y162836D02*
X130709Y159686D01*
X127559Y162836D02*
Y172638D01*
X131588Y163983D02*
X133858D01*
X130709Y164862D02*
X131588Y163983D01*
X130709Y164862D02*
Y172638D01*
X146063Y185039D02*
X148622Y187598D01*
X146063Y166732D02*
Y185039D01*
X156299Y169562D02*
Y174606D01*
X155905Y175000D02*
X156299Y174606D01*
X150790Y160433D02*
X163779Y173423D01*
X146063Y160433D02*
X150790D01*
X163779Y173423D02*
Y232362D01*
X146063Y157283D02*
X157579D01*
X5020Y144803D02*
X11949Y151732D01*
X91240Y180807D02*
X122992Y212559D01*
X91240Y153937D02*
Y180807D01*
X141043Y214567D02*
X142992D01*
X103839Y177362D02*
X141043Y214567D01*
X103839Y162697D02*
Y177362D01*
X97047Y178622D02*
X132992Y214567D01*
X97047Y162795D02*
Y178622D01*
X122992Y212559D02*
Y214567D01*
X106102Y160433D02*
X112205D01*
X103839Y162697D02*
X106102Y160433D01*
X102559Y157283D02*
X112205D01*
X97047Y162795D02*
X102559Y157283D01*
X150320Y163583D02*
X156299Y169562D01*
X146063Y163583D02*
X150320D01*
X146063Y154134D02*
X163386D01*
X159775Y147736D02*
X163386D01*
X159676Y147835D02*
X159775Y147736D01*
X146063Y147835D02*
X159676D01*
X133858Y163983D02*
X137008Y167132D01*
X163779Y232362D02*
X166161Y234744D01*
X187402Y169626D02*
X219980Y202205D01*
X187402Y147835D02*
Y169626D01*
X93307Y113091D02*
X102165Y121949D01*
X93307Y37303D02*
Y113091D01*
Y37303D02*
X110728Y19882D01*
X122835D01*
X127953Y87008D02*
X137303Y87106D01*
X124016Y121850D02*
Y122146D01*
X121260Y124902D02*
X124016Y122146D01*
X118110Y101378D02*
Y138779D01*
X121260Y124902D02*
Y138779D01*
X22835Y185158D02*
Y211496D01*
X123622Y159365D02*
X124409Y160152D01*
Y172638D01*
X133858Y138779D02*
Y163983D01*
X21831Y185158D02*
X22835D01*
X53051Y153937D02*
X91190D01*
X137303Y87106D02*
X137690D01*
X237992Y214030D02*
Y273543D01*
Y32972D02*
Y214030D01*
X112190Y91732D02*
Y144685D01*
X137690Y89232D02*
X225690Y177232D01*
X127559Y172638D02*
Y188702D01*
X96890Y244932D02*
X143358D01*
X194980Y296555D01*
X230990Y58957D02*
X234350D01*
X230990D02*
Y64285D01*
X150590Y144685D02*
X160843Y134432D01*
X146063Y144685D02*
X150590D01*
X132677Y29724D02*
Y76968D01*
Y29724D02*
X142520Y19882D01*
X95990Y153937D02*
X96358D01*
X237992Y32932D02*
Y32972D01*
X222890Y36532D02*
X226490Y32932D01*
X208590Y36532D02*
X222890D01*
X191939Y19882D02*
X208590Y36532D01*
X142520Y19882D02*
X191939D01*
X67224Y238681D02*
Y245932D01*
X121260Y172638D02*
Y183862D01*
X13819Y211496D02*
Y257028D01*
X23524Y266732D01*
Y272638D01*
Y237586D02*
Y238779D01*
Y237586D02*
X31850Y229259D01*
Y211496D02*
Y229259D01*
X67224Y262532D02*
Y272539D01*
X137008Y167132D02*
Y172638D01*
X143602Y120532D02*
Y125197D01*
Y120532D02*
X162890D01*
X187402Y145044D01*
Y147835D01*
X214980Y296555D02*
X237992Y273543D01*
X216890Y202205D02*
X219980D01*
X216890Y220132D02*
X231890D01*
X237992Y214030D01*
X130709Y138779D02*
Y145213D01*
X129370Y146552D02*
X130709Y145213D01*
X124409Y146552D02*
X129370D01*
X124409Y138779D02*
Y146552D01*
X140158Y137032D02*
Y138779D01*
Y137032D02*
X147343Y129847D01*
Y125197D02*
Y129847D01*
X67224Y232732D02*
Y238681D01*
Y232732D02*
X85390Y214567D01*
X112992D01*
X241732Y29232D02*
Y41634D01*
X239232Y26732D02*
X241732Y29232D01*
X219921Y26732D02*
X239232D01*
X215847Y30807D02*
X219921Y26732D01*
X112190Y144685D02*
X112205D01*
X112190Y91732D02*
X116816Y87106D01*
X122736D01*
X137008Y133387D02*
Y138779D01*
Y133387D02*
X139862Y130532D01*
Y125197D02*
Y130532D01*
X175788Y147835D02*
X180709D01*
X175690Y147736D02*
X175788Y147835D01*
X170866Y147736D02*
X175690D01*
X234350Y46931D02*
Y52264D01*
X234252Y46832D02*
X234350Y46931D01*
X234252Y41634D02*
Y46832D01*
X104287Y154134D02*
X112205D01*
X104090Y153937D02*
X104287Y154134D01*
X96358Y153937D02*
X104090D01*
X142421Y82031D02*
Y87106D01*
Y82031D02*
X142520Y81932D01*
Y76968D02*
Y81932D01*
X122736Y82031D02*
Y87106D01*
Y82031D02*
X122835Y81932D01*
Y76968D02*
Y81932D01*
D51*
X23622Y238681D02*
X67224D01*
X65945Y303838D02*
X81004Y288779D01*
Y259712D02*
Y288779D01*
X67224Y245932D02*
X81004Y259712D01*
X65945Y303838D02*
Y314764D01*
X23524Y272638D02*
Y292065D01*
X46223Y314764D01*
D52*
X123917D02*
X126161Y312520D01*
Y284744D02*
Y312520D01*
X136161Y284744D02*
Y307286D01*
X143640Y314764D01*
X146161Y297601D02*
X163325Y314764D01*
X146161Y284744D02*
Y297601D01*
X116161Y284744D02*
Y302798D01*
X104195Y314764D02*
X116161Y302798D01*
D53*
X224980Y296555D02*
D03*
X214980D02*
D03*
X204980D02*
D03*
X96161Y284744D02*
D03*
X106161D02*
D03*
X116161D02*
D03*
X126161D02*
D03*
X136161D02*
D03*
X146161D02*
D03*
X156161D02*
D03*
X166161D02*
D03*
Y234744D02*
D03*
X156161D02*
D03*
X146161D02*
D03*
X136161D02*
D03*
X126161D02*
D03*
X116161D02*
D03*
X106161D02*
D03*
X96161D02*
D03*
X215847Y30807D02*
D03*
X184350D02*
D03*
X219980Y202205D02*
D03*
Y192205D02*
D03*
Y182205D02*
D03*
X21949Y151732D02*
D03*
Y161732D02*
D03*
X11949Y141732D02*
D03*
Y151732D02*
D03*
Y161732D02*
D03*
X122992Y214567D02*
D03*
X132992D02*
D03*
X142992D02*
D03*
D54*
X194980Y296555D02*
D03*
X21949Y141732D02*
D03*
X112992Y214567D02*
D03*
D55*
X122835Y19882D02*
D03*
X142520D02*
D03*
Y76968D02*
D03*
X132677D02*
D03*
X122835D02*
D03*
D56*
X219980Y212205D02*
D03*
D57*
X163325Y314764D02*
D03*
X143640D02*
D03*
X123917D02*
D03*
X104195D02*
D03*
X46223D02*
D03*
X65945D02*
D03*
D58*
X66142Y139764D02*
D03*
X47244Y255512D02*
D03*
X47441Y212598D02*
D03*
X186024Y235433D02*
D03*
X139764Y183858D02*
D03*
X127890Y189032D02*
D03*
X123622Y159365D02*
D03*
X155905Y175000D02*
D03*
X148622Y187598D02*
D03*
X102165Y136909D02*
D03*
Y121949D02*
D03*
X124016Y122146D02*
D03*
X230990Y64285D02*
D03*
X160843Y134432D02*
D03*
X121260Y183862D02*
D03*
X118110Y101378D02*
D03*
D59*
X246063Y324803D02*
D03*
Y9843D02*
D03*
X9843D02*
D03*
Y324803D02*
D03*
M02*
