G04*
G04 #@! TF.GenerationSoftware,Altium Limited,Altium Designer,18.0.7 (293)*
G04*
G04 Layer_Color=8421504*
%FSLAX25Y25*%
%MOIN*%
G70*
G01*
G75*
%ADD19R,0.12756X0.05158*%
%ADD20R,0.03661X0.05158*%
%ADD21R,0.07087X0.10236*%
%ADD22R,0.02165X0.05906*%
%ADD23R,0.05906X0.02165*%
%ADD24R,0.01181X0.06299*%
%ADD25R,0.05906X0.17717*%
%ADD26R,0.05118X0.05906*%
%ADD27R,0.03937X0.04331*%
%ADD28R,0.03543X0.02756*%
%ADD29R,0.04331X0.03937*%
%ADD30R,0.03347X0.05118*%
D19*
X22835Y185158D02*
D03*
D20*
X13819Y211496D02*
D03*
X22835D02*
D03*
X31850D02*
D03*
D21*
X155118Y47441D02*
D03*
X110236D02*
D03*
D22*
X118110Y138779D02*
D03*
X121260D02*
D03*
X124409D02*
D03*
X127559D02*
D03*
X130709D02*
D03*
X133858D02*
D03*
X137008D02*
D03*
X140158D02*
D03*
Y172638D02*
D03*
X137008D02*
D03*
X133858D02*
D03*
X130709D02*
D03*
X127559D02*
D03*
X124409D02*
D03*
X121260D02*
D03*
X118110D02*
D03*
D23*
X146063Y144685D02*
D03*
Y147835D02*
D03*
Y150984D02*
D03*
Y154134D02*
D03*
Y157283D02*
D03*
Y160433D02*
D03*
Y163583D02*
D03*
Y166732D02*
D03*
X112205D02*
D03*
Y163583D02*
D03*
Y160433D02*
D03*
Y157283D02*
D03*
Y154134D02*
D03*
Y150984D02*
D03*
Y147835D02*
D03*
Y144685D02*
D03*
D24*
X139862Y125197D02*
D03*
X143602D02*
D03*
X147343D02*
D03*
D25*
X23524Y238779D02*
D03*
Y272638D02*
D03*
X67224Y238681D02*
D03*
Y272539D02*
D03*
D26*
X163386Y147736D02*
D03*
X170866D02*
D03*
D27*
X234350Y52264D02*
D03*
Y58957D02*
D03*
D28*
X96358Y153937D02*
D03*
X91240D02*
D03*
X137303Y87106D02*
D03*
X142421D02*
D03*
X127854D02*
D03*
X122736D02*
D03*
D29*
X187402Y147835D02*
D03*
X180709D02*
D03*
D30*
X241732Y41634D02*
D03*
X234252D02*
D03*
X237992Y32972D02*
D03*
M02*
