%FSTAX23Y23*%
%MOIN*%
%SFA1B1*%

%IPPOS*%
%ADD43C,0.068000*%
%ADD44R,0.070990X0.070990*%
%ADD45C,0.067370*%
%ADD46R,0.070990X0.070990*%
%ADD47C,0.086740*%
%ADD48C,0.058000*%
%ADD49C,0.133980*%
%LNpunkcontroller-pcb-1*%
%LPD*%
G54D43*
X02249Y02965D03*
X02149D03*
X02049D03*
X00961Y02847D03*
X01061D03*
X01161D03*
X01261D03*
X01361D03*
X01461D03*
X01561D03*
X01661D03*
Y02347D03*
X01561D03*
X01461D03*
X01361D03*
X01261D03*
X01161D03*
X01061D03*
X00961D03*
X02158Y00308D03*
X01843D03*
X02199Y02022D03*
Y01922D03*
Y01822D03*
X00219Y01517D03*
Y01617D03*
X00119Y01417D03*
Y01517D03*
Y01617D03*
X01229Y02145D03*
X01329D03*
X01429D03*
G54D44*
X01949Y02965D03*
X00219Y01417D03*
X01129Y02145D03*
G54D45*
X01228Y00198D03*
X01425D03*
Y00769D03*
X01326D03*
X01228D03*
G54D46*
X02199Y02122D03*
G54D47*
X01633Y03147D03*
X01436D03*
X01239D03*
X01041D03*
X00462D03*
X00659D03*
G54D48*
X00661Y01397D03*
X00472Y02555D03*
X00474Y02125D03*
X0186Y02354D03*
X01397Y01838D03*
X01278Y0189D03*
X01236Y01593D03*
X01559Y0175D03*
X01486Y01875D03*
X01021Y01369D03*
Y01219D03*
X0124Y01221D03*
X02309Y00642D03*
X01608Y01344D03*
X01212Y01838D03*
X01181Y01013D03*
G54D49*
X0246Y03248D03*
Y00098D03*
X00098D03*
Y03248D03*
M02*