%FSTAX23Y23*%
%MOIN*%
%SFA1B1*%

%IPPOS*%
%ADD9500C,0.028000*%
%ADD9501C,0.030000*%
%ADD9502C,0.039370*%
%ADD9503C,0.047240*%
%ADD9504C,0.118110*%
%LNpunkcontroller-pcb-1*%
%LPD*%
G54D9500*
X02309Y00642D03*
X01608Y01344D03*
X01559Y0175D03*
X01486Y01875D03*
X01397Y01838D03*
X01278Y0189D03*
X01212Y01838D03*
X01236Y01593D03*
X0124Y01221D03*
X01021Y01219D03*
Y01369D03*
X00661Y01397D03*
X01181Y01013D03*
X00474Y02125D03*
X00472Y02555D03*
X0186Y02354D03*
G54D9501*
X01843Y00308D03*
X02158D03*
X02199Y01822D03*
Y01922D03*
Y02022D03*
X00219Y01617D03*
Y01517D03*
X00119D03*
Y01417D03*
Y01617D03*
X00961Y02347D03*
X01061D03*
X01161D03*
X01261D03*
X01361D03*
X01461D03*
X01561D03*
X01661D03*
X01429Y02145D03*
X01329D03*
X01229D03*
X01261Y02847D03*
X01161D03*
X01061D03*
X00961D03*
X01361D03*
X01461D03*
X01561D03*
X01661D03*
X02049Y02965D03*
X02149D03*
X02249D03*
G54D9502*
X01228Y00198D03*
X01425D03*
Y00769D03*
X01326D03*
X01228D03*
X00219Y01417D03*
X01129Y02145D03*
X02199Y02122D03*
X01949Y02965D03*
G54D9503*
X00462Y03147D03*
X00659D03*
X01041D03*
X01239D03*
X01436D03*
X01633D03*
G54D9504*
X00098Y00098D03*
X0246D03*
X00098Y03248D03*
X0246D03*
M02*