M48
;Layer_Color=9474304
;FILE_FORMAT=2:5
INCH,LZ
;TYPE=PLATED
T1F00S00C0.02800
T2F00S00C0.03000
T3F00S00C0.03937
T4F00S00C0.04724
T5F00S00C0.11811
%
T01
X023099Y0064285
X0160843Y0134432
X0155905Y0175
X0148622Y0187598
X0139764Y0183858
X012789Y0189032
X012126Y0183862
X0123622Y0159365
X0124016Y0122146
X0102165Y0121949
Y0136909
X0066142Y0139764
X011811Y0101378
X0047441Y0212598
X0047244Y0255512
X0186024Y0235433
T02
X018435Y0030807
X0215847
X021998Y0182205
Y0192205
Y0202205
X0021949Y0161732
Y0151732
X0011949
Y0141732
Y0161732
X0096161Y0234744
X0106161
X0116161
X0126161
X0136161
X0146161
X0156161
X0166161
X0142992Y0214567
X0132992
X0122992
X0126161Y0284744
X0116161
X0106161
X0096161
X0136161
X0146161
X0156161
X0166161
X020498Y0296555
X021498
X022498
T03
X0122835Y0019882
X014252
Y0076968
X0132677
X0122835
X0021949Y0141732
X0112992Y0214567
X021998Y0212205
X019498Y0296555
T04
X0046223Y0314764
X0065945
X0104195
X0123917
X014364
X0163325
T05
X0009843Y0009843
X0246063
X0009843Y0324803
X0246063
M30
