G04*
G04 #@! TF.GenerationSoftware,Altium Limited,Altium Designer,18.0.7 (293)*
G04*
G04 Layer_Color=8388736*
%FSLAX25Y25*%
%MOIN*%
G70*
G01*
G75*
%ADD31R,0.13556X0.05958*%
%ADD32R,0.04461X0.05958*%
%ADD33R,0.07887X0.11036*%
%ADD34R,0.02965X0.06706*%
%ADD35R,0.06706X0.02965*%
%ADD36R,0.01981X0.07099*%
%ADD37R,0.06706X0.18517*%
%ADD38R,0.05918X0.06706*%
%ADD39R,0.04737X0.05131*%
%ADD40R,0.04343X0.03556*%
%ADD41R,0.05131X0.04737*%
%ADD42R,0.04147X0.05918*%
%ADD43C,0.06800*%
%ADD44R,0.07099X0.07099*%
%ADD45C,0.06737*%
%ADD46R,0.07099X0.07099*%
%ADD47C,0.08674*%
%ADD48C,0.05800*%
%ADD49C,0.13398*%
D31*
X22835Y185158D02*
D03*
D32*
X13819Y211496D02*
D03*
X22835D02*
D03*
X31850D02*
D03*
D33*
X155118Y47441D02*
D03*
X110236D02*
D03*
D34*
X118110Y138779D02*
D03*
X121260D02*
D03*
X124409D02*
D03*
X127559D02*
D03*
X130709D02*
D03*
X133858D02*
D03*
X137008D02*
D03*
X140158D02*
D03*
Y172638D02*
D03*
X137008D02*
D03*
X133858D02*
D03*
X130709D02*
D03*
X127559D02*
D03*
X124409D02*
D03*
X121260D02*
D03*
X118110D02*
D03*
D35*
X146063Y144685D02*
D03*
Y147835D02*
D03*
Y150984D02*
D03*
Y154134D02*
D03*
Y157283D02*
D03*
Y160433D02*
D03*
Y163583D02*
D03*
Y166732D02*
D03*
X112205D02*
D03*
Y163583D02*
D03*
Y160433D02*
D03*
Y157283D02*
D03*
Y154134D02*
D03*
Y150984D02*
D03*
Y147835D02*
D03*
Y144685D02*
D03*
D36*
X139862Y125197D02*
D03*
X143602D02*
D03*
X147343D02*
D03*
D37*
X23524Y238779D02*
D03*
Y272638D02*
D03*
X67224Y238681D02*
D03*
Y272539D02*
D03*
D38*
X163386Y147736D02*
D03*
X170866D02*
D03*
D39*
X234350Y52264D02*
D03*
Y58957D02*
D03*
D40*
X96358Y153937D02*
D03*
X91240D02*
D03*
X137303Y87106D02*
D03*
X142421D02*
D03*
X127854D02*
D03*
X122736D02*
D03*
D41*
X187402Y147835D02*
D03*
X180709D02*
D03*
D42*
X241732Y41634D02*
D03*
X234252D02*
D03*
X237992Y32972D02*
D03*
D43*
X224980Y296555D02*
D03*
X214980D02*
D03*
X204980D02*
D03*
X96161Y284744D02*
D03*
X106161D02*
D03*
X116161D02*
D03*
X126161D02*
D03*
X136161D02*
D03*
X146161D02*
D03*
X156161D02*
D03*
X166161D02*
D03*
Y234744D02*
D03*
X156161D02*
D03*
X146161D02*
D03*
X136161D02*
D03*
X126161D02*
D03*
X116161D02*
D03*
X106161D02*
D03*
X96161D02*
D03*
X215847Y30807D02*
D03*
X184350D02*
D03*
X219980Y202205D02*
D03*
Y192205D02*
D03*
Y182205D02*
D03*
X21949Y151732D02*
D03*
Y161732D02*
D03*
X11949Y141732D02*
D03*
Y151732D02*
D03*
Y161732D02*
D03*
X122992Y214567D02*
D03*
X132992D02*
D03*
X142992D02*
D03*
D44*
X194980Y296555D02*
D03*
X21949Y141732D02*
D03*
X112992Y214567D02*
D03*
D45*
X122835Y19882D02*
D03*
X142520D02*
D03*
Y76968D02*
D03*
X132677D02*
D03*
X122835D02*
D03*
D46*
X219980Y212205D02*
D03*
D47*
X163325Y314764D02*
D03*
X143640D02*
D03*
X123917D02*
D03*
X104195D02*
D03*
X46223D02*
D03*
X65945D02*
D03*
D48*
X66142Y139764D02*
D03*
X47244Y255512D02*
D03*
X47441Y212598D02*
D03*
X186024Y235433D02*
D03*
X139764Y183858D02*
D03*
X127890Y189032D02*
D03*
X123622Y159365D02*
D03*
X155905Y175000D02*
D03*
X148622Y187598D02*
D03*
X102165Y136909D02*
D03*
Y121949D02*
D03*
X124016Y122146D02*
D03*
X230990Y64285D02*
D03*
X160843Y134432D02*
D03*
X121260Y183862D02*
D03*
X118110Y101378D02*
D03*
D49*
X246063Y324803D02*
D03*
Y9843D02*
D03*
X9843D02*
D03*
Y324803D02*
D03*
M02*
